<?xml version="1.0" encoding="utf-8"?>
<!-- Generator: Adobe Illustrator 23.1.0, SVG Export Plug-In . SVG Version: 6.00 Build 0)  -->
<svg version="1.1" id="Livello_1" xmlns="http://www.w3.org/2000/svg" xmlns:xlink="http://www.w3.org/1999/xlink" x="0px" y="0px"
	 viewBox="0 0 992.126 283.465" enable-background="new 0 0 992.126 283.465" xml:space="preserve">
<g>
	<g>
		<path fill="#F15A24" d="M165.324,247.316c-6.11,0.003-11.741-3.997-13.541-10.157c-2.187-7.483,2.106-15.32,9.588-17.507
			c44.956-13.139,70.84-60.403,57.701-105.36c-6.364-21.776-20.829-39.771-40.728-50.67c-19.899-10.896-42.852-13.394-64.63-7.029
			c-21.778,6.365-39.774,20.83-50.672,40.73c-10.898,19.899-13.394,42.852-7.028,64.63c2.187,7.481-2.106,15.32-9.588,17.507
			c-7.481,2.188-15.321-2.105-17.507-9.588c-8.48-29.015-5.155-59.595,9.366-86.108c14.52-26.513,38.495-45.784,67.511-54.266
			c59.897-17.5,122.866,16.982,140.373,76.877c17.505,59.896-16.981,122.866-76.877,140.373
			C167.968,247.133,166.634,247.316,165.324,247.316z"/>
	</g>
	<g>
		<polygon fill="#666464" points="561.098,24.943 530.535,45.262 530.535,68.336 518.867,68.336 518.867,97.076 530.535,97.076 
			530.535,189.942 561.098,189.942 561.098,97.076 582.368,97.076 582.368,68.336 561.098,68.336 		"/>
		<path fill="#666464" d="M686.01,143.592c-5.459,8.543-10.356,14.453-14.543,17.554c-4.154,3.021-9.521,4.553-15.949,4.553
			c-8.265,0-15.12-2.701-20.362-8.02c-4.965-5.108-7.945-11.994-8.872-20.489h84.657l0.151-8.05
			c0-19.851-5.212-35.632-15.493-46.908c-10.4-11.398-24.704-17.177-42.512-17.177c-17.648,0-32.033,5.943-42.768,17.675
			c-10.596,11.838-15.968,27.494-15.968,46.531c0,19.215,5.543,34.879,16.48,46.563c10.962,11.628,25.67,17.522,43.713,17.522
			c6.25,0,12.145-0.67,17.524-1.992c5.407-1.333,10.508-3.463,15.164-6.33c4.647-2.865,9.056-6.558,13.105-10.979
			c4.03-4.403,7.901-9.749,11.504-15.892l0.833-1.417l-25.852-14.421L686.01,143.592z M628.492,111.608
			c0.797-2.431,1.835-4.66,3.099-6.646c1.597-2.509,3.543-4.687,5.781-6.474c2.237-1.779,4.756-3.164,7.489-4.114
			c2.733-0.95,5.704-1.431,8.832-1.431c13.199,0,21.546,6.112,25.463,18.665H628.492z"/>
		<path fill="#666464" d="M798.339,65.054c-18.499,0-34.335,6.288-47.068,18.689c-12.741,12.41-19.202,27.846-19.202,45.881
			c0,18.039,6.38,33.354,18.968,45.526c12.567,12.073,28.401,18.196,47.059,18.196c11.306,0,22.76-2.965,34.044-8.811l0.868-0.45
			v-41.546l-2.846,3.444c-6.409,7.755-12.025,13.028-16.692,15.668c-4.756,2.685-10.337,4.047-16.591,4.047
			c-9.78,0-17.932-3.425-24.22-10.176c-6.252-6.792-9.422-15.629-9.422-26.262c0-10.383,3.287-19.131,9.772-26.003
			c6.461-6.844,14.697-10.314,24.48-10.314c6.238,0,11.726,1.396,16.338,4.162c4.748,2.726,10.243,7.876,16.332,15.306l2.85,3.478
			v-41.8l-0.845-0.455C821.603,67.941,810.222,65.054,798.339,65.054z"/>
		<path fill="#666464" d="M957.169,78.576c-8.301-8.972-19.493-13.521-33.268-13.521c-11.031,0-21.312,3.784-30.604,11.256V24.943
			l-30.566,20.319l0.003,144.68h30.562v-58.859c0-14.21,1.837-24.306,5.449-29.989c3.605-5.484,9.768-8.15,18.834-8.15
			c6.903,0,11.94,1.942,14.967,5.771c3.118,3.944,4.698,10.542,4.698,19.606v71.621h30.562v-74.173
			C967.807,98.905,964.233,86.397,957.169,78.576z"/>
	</g>
	<path fill="#F15A24" d="M374.738,193.094L374.738,193.094c7.767,0,14.063-5.007,14.063-11.183v-78.65
		c0-6.176-6.296-11.183-14.063-11.183h0c-7.767,0-14.063,5.007-14.063,11.183v78.65
		C360.674,188.087,366.971,193.094,374.738,193.094z"/>
	<path fill="#F15A24" d="M428.296,193.094L428.296,193.094c7.767,0,14.063-6.296,14.063-14.063l-0.04-140.024
		c0-7.767-6.296-14.063-14.063-14.063h0c-7.767,0-14.063,6.296-14.063,14.063l0.04,140.024
		C414.233,186.797,420.529,193.094,428.296,193.094z"/>
	<path fill="#F15A24" d="M481.854,193.094L481.854,193.094c7.767,0,14.063-5.007,14.063-11.183v-78.65
		c0-6.176-6.296-11.183-14.063-11.183h0c-7.767,0-14.063,5.007-14.063,11.183v78.65
		C467.791,188.087,474.087,193.094,481.854,193.094z"/>
	<circle fill="#F15A24" cx="374.717" cy="68.336" r="14.063"/>
	<circle fill="#F15A24" cx="481.834" cy="68.336" r="14.063"/>
	<path fill="#F15A24" d="M334.783,166.015c-0.739-0.911-2.092-1.372-4.061-1.372c-1.315,0-2.707-0.498-4.183-1.497
		s-2.915-2.91-4.306-5.74c-1.395-2.828-2.545-6.739-3.445-11.732c-0.904-4.991-1.279-11.677-1.279-19.831V95.654l-0.04-56.647
		c0-7.767-6.296-14.063-14.063-14.063h0c-7.767,0-14.063,6.296-14.063,14.063l0.04,87.204c0,15.312,1.353,27.66,4.061,36.561
		c2.706,8.902,6.11,15.6,10.212,20.092c2.785,3.053,5.747,5.338,8.876,6.892c1.475,0.733,2.984,1.318,4.535,1.718
		c4.838,1.248,9.39,1.872,13.658,1.872c1.311,0,2.499-0.163,3.568-0.499c1.065-0.332,1.6-1.163,1.6-2.497v-21.215
		C335.89,167.973,335.521,166.932,334.783,166.015z"/>
	<path fill="#F15A24" d="M324.815,247.101L324.815,247.101c1.752,0,3.172-1.129,3.172-2.523v-17.742c0-1.393-1.42-2.523-3.172-2.523
		l0,0c-1.752,0-3.172,1.129-3.172,2.523v17.742C321.643,245.971,323.063,247.101,324.815,247.101z"/>
	<path fill="#F15A24" d="M434.592,247.129L434.592,247.129c1.752,0,3.172-1.42,3.172-3.172l-0.009-31.587
		c0-1.752-1.42-3.172-3.172-3.172h0c-1.752,0-3.172,1.42-3.172,3.172l0.009,31.587C431.42,245.709,432.84,247.129,434.592,247.129z"
		/>
	<path fill="#F15A24" d="M446.674,247.129L446.674,247.129c1.752,0,3.172-1.129,3.172-2.523v-17.742c0-1.393-1.42-2.523-3.172-2.523
		l0,0c-1.752,0-3.172,1.129-3.172,2.523v17.742C443.501,246,444.922,247.129,446.674,247.129z"/>
	<circle fill="#F15A24" cx="324.811" cy="218.958" r="3.172"/>
	<circle fill="#666464" cx="359.762" cy="218.8" r="3.172"/>
	<circle fill="#666464" cx="511.576" cy="218.8" r="3.172"/>
	<circle fill="#F15A24" cx="446.669" cy="218.986" r="3.172"/>
	<path fill="#F15A24" d="M315.802,240.992c-0.167-0.206-0.472-0.31-0.916-0.31c-0.297,0-0.611-0.112-0.944-0.338
		c-0.333-0.225-0.658-0.656-0.971-1.295c-0.315-0.638-0.574-1.52-0.777-2.646c-0.204-1.126-0.288-2.634-0.288-4.473v-6.81
		l-0.009-12.779c0-1.752-1.42-3.172-3.172-3.172h0c-1.752,0-3.172,1.42-3.172,3.172l0.009,19.672c0,3.454,0.305,6.24,0.916,8.248
		c0.61,2.008,1.378,3.519,2.304,4.532c0.628,0.689,1.297,1.204,2.002,1.555c0.333,0.165,0.673,0.297,1.023,0.387
		c1.091,0.281,2.118,0.422,3.081,0.422c0.296,0,0.564-0.037,0.805-0.112c0.24-0.075,0.361-0.262,0.361-0.563v-4.786
		C316.052,241.434,315.969,241.199,315.802,240.992z"/>
	<path fill="#F15A24" d="M123.473,182.393L123.473,182.393c4.137,0,7.49-2.667,7.49-5.956v-41.889c0-3.29-3.353-5.956-7.49-5.956h0
		c-4.137,0-7.49,2.667-7.49,5.956v41.889C115.983,179.726,119.336,182.393,123.473,182.393z"/>
	<path fill="#F15A24" d="M151.59,182.393L151.59,182.393c4.137,0,7.49-3.353,7.49-7.49l-0.021-73.328c0-4.137-3.353-7.49-7.49-7.49
		h0c-4.137,0-7.49,3.353-7.49,7.49l0.021,73.328C144.1,179.039,147.453,182.393,151.59,182.393z"/>
	<path fill="#F15A24" d="M95.378,182.46L95.378,182.46c4.137,0,7.49-3.353,7.49-7.49l-0.021-73.328c0-4.137-3.353-7.49-7.49-7.49h0
		c-4.137,0-7.49,3.353-7.49,7.49l0.021,73.328C87.888,179.106,91.241,182.46,95.378,182.46z"/>
	<path fill="#F15A24" d="M179.685,182.393L179.685,182.393c4.137,0,7.49-2.667,7.49-5.956v-41.889c0-3.29-3.353-5.956-7.49-5.956h0
		c-4.137,0-7.49,2.667-7.49,5.956v41.889C172.195,179.726,175.549,182.393,179.685,182.393z"/>
	<g>
		<path fill="#666464" d="M337.359,225.459l5.532,12.009l5.51-12.009h5.554l-11.109,22.854l-11.021-22.854H337.359z"/>
		<path fill="#666464" d="M362.232,225.459v21.383h-4.939v-21.383H362.232z"/>
		<path fill="#666464" d="M368.489,225.459h4.961v1.975c1.727-1.712,3.673-2.57,5.84-2.57c2.488,0,4.428,0.785,5.818,2.35
			c1.2,1.333,1.799,3.505,1.799,6.52v13.107h-4.961v-11.944c0-2.107-0.293-3.563-0.878-4.369c-0.571-0.818-1.61-1.228-3.118-1.228
			c-1.639,0-2.803,0.542-3.491,1.624c-0.673,1.069-1.01,2.936-1.01,5.599v10.318h-4.961V225.459z"/>
		<path fill="#666464" d="M413.826,246.337c0,1.009-0.033,1.898-0.099,2.666c-0.066,0.77-0.157,1.446-0.274,2.032
			c-0.352,1.609-1.039,2.992-2.063,4.149c-1.932,2.224-4.589,3.337-7.97,3.337c-2.854,0-5.203-0.768-7.047-2.306
			c-1.902-1.58-3.001-3.769-3.292-6.564h4.961c0.19,1.055,0.505,1.866,0.945,2.438c1.024,1.331,2.516,1.996,4.478,1.996
			c3.615,0,5.423-2.216,5.423-6.652v-2.986c-1.961,2.007-4.223,3.009-6.784,3.009c-2.913,0-5.298-1.055-7.157-3.162
			c-1.873-2.136-2.81-4.808-2.81-8.014c0-3.118,0.871-5.765,2.613-7.947c1.873-2.312,4.346-3.469,7.42-3.469
			c2.693,0,4.932,1.004,6.718,3.009v-2.415h4.94V246.337z M409.083,236.193c0-2.078-0.557-3.739-1.669-4.982
			c-1.127-1.274-2.569-1.91-4.324-1.91c-1.874,0-3.352,0.695-4.435,2.086c-0.981,1.243-1.471,2.854-1.471,4.829
			c0,1.946,0.49,3.543,1.471,4.785c1.068,1.362,2.547,2.042,4.435,2.042c1.887,0,3.38-0.688,4.478-2.063
			C408.579,239.735,409.083,238.141,409.083,236.193z"/>
		<path fill="#666464" d="M461.444,230.068v16.773h-4.961v-16.773h-1.757v-4.61h1.757v-8.255c0-2.693,0.468-4.597,1.405-5.708
			c1.287-1.553,3.161-2.327,5.62-2.327c0.878,0,1.983,0.255,3.314,0.768v5.049l-0.504-0.264c-1.069-0.542-1.947-0.812-2.635-0.812
			c-0.878,0-1.47,0.314-1.778,0.944c-0.308,0.615-0.461,1.799-0.461,3.557v7.047h5.379v4.61H461.444z"/>
		<path fill="#666464" d="M489.831,237.312h-15.324c0.132,1.758,0.702,3.155,1.713,4.193c1.01,1.025,2.305,1.538,3.886,1.538
			c1.229,0,2.246-0.293,3.052-0.879c0.79-0.584,1.69-1.668,2.7-3.25l4.171,2.329c-0.644,1.096-1.326,2.038-2.042,2.821
			c-0.718,0.783-1.486,1.427-2.305,1.931c-0.82,0.504-1.705,0.875-2.656,1.109c-0.952,0.234-1.984,0.352-3.096,0.352
			c-3.191,0-5.752-1.025-7.685-3.074c-1.931-2.063-2.898-4.8-2.898-8.211c0-3.381,0.937-6.118,2.81-8.211
			c1.888-2.063,4.391-3.097,7.509-3.097c3.147,0,5.635,1.004,7.465,3.009c1.814,1.99,2.722,4.75,2.722,8.276L489.831,237.312z
			 M484.759,233.274c-0.687-2.634-2.349-3.953-4.983-3.953c-0.601,0-1.163,0.092-1.691,0.274c-0.526,0.184-1.006,0.448-1.438,0.791
			c-0.432,0.345-0.801,0.757-1.109,1.241c-0.308,0.483-0.542,1.032-0.702,1.647H484.759z"/>
		<path fill="#666464" d="M514.045,225.459v21.383h-4.938v-21.383H514.045z"/>
		<path fill="#666464" d="M520.303,225.459h4.961v1.975c1.726-1.712,3.672-2.57,5.84-2.57c2.486,0,4.428,0.785,5.817,2.35
			c1.201,1.333,1.799,3.505,1.799,6.52v13.107h-4.959v-11.944c0-2.107-0.293-3.563-0.879-4.369
			c-0.573-0.818-1.611-1.228-3.118-1.228c-1.641,0-2.804,0.542-3.492,1.624c-0.672,1.069-1.009,2.936-1.009,5.599v10.318h-4.961
			V225.459z"/>
		<path fill="#666464" d="M563.925,230.068v16.773h-4.94v-16.773h-2.107v-4.61h2.107l0-3.525l4.941-4.314v7.838h3.842v4.61H563.925z
			"/>
		<path fill="#666464" d="M590.993,237.312H575.67c0.132,1.758,0.703,3.155,1.712,4.193c1.011,1.025,2.306,1.538,3.886,1.538
			c1.23,0,2.247-0.293,3.053-0.879c0.789-0.584,1.691-1.668,2.699-3.25l4.172,2.329c-0.645,1.096-1.325,2.038-2.042,2.821
			s-1.486,1.427-2.306,1.931c-0.818,0.504-1.705,0.875-2.655,1.109c-0.952,0.234-1.984,0.352-3.097,0.352
			c-3.191,0-5.752-1.025-7.683-3.074c-1.931-2.063-2.898-4.8-2.898-8.211c0-3.381,0.937-6.118,2.81-8.211
			c1.89-2.063,4.392-3.097,7.51-3.097c3.145,0,5.633,1.004,7.464,3.009c1.814,1.99,2.722,4.75,2.722,8.276L590.993,237.312z
			 M585.923,233.274c-0.688-2.634-2.35-3.953-4.984-3.953c-0.601,0-1.163,0.092-1.691,0.274c-0.527,0.184-1.006,0.448-1.438,0.791
			c-0.433,0.345-0.801,0.757-1.109,1.241c-0.308,0.483-0.542,1.032-0.703,1.647H585.923z"/>
		<path fill="#666464" d="M613.037,226.379v6.566c-1.128-1.377-2.136-2.321-3.03-2.833c-0.879-0.527-1.91-0.791-3.095-0.791
			c-1.86,0-3.404,0.653-4.633,1.954c-1.23,1.304-1.846,2.936-1.846,4.896c0,2.005,0.594,3.651,1.779,4.94
			c1.201,1.287,2.731,1.931,4.589,1.931c1.186,0,2.233-0.255,3.139-0.768c0.879-0.498,1.91-1.465,3.097-2.898v6.52
			c-2.007,1.038-4.011,1.559-6.016,1.559c-3.308,0-6.074-1.069-8.299-3.206c-2.224-2.151-3.337-4.823-3.337-8.014
			c0-3.189,1.128-5.884,3.381-8.079c2.254-2.195,5.02-3.294,8.299-3.294C609.172,224.864,611.162,225.371,613.037,226.379z"/>
		<path fill="#666464" d="M618.986,221.934l4.94-4.237v9.541c1.756-1.582,3.695-2.373,5.817-2.373c2.415,0,4.346,0.785,5.796,2.35
			c1.228,1.362,1.843,3.534,1.843,6.52v13.107h-4.938v-12.645c0-1.714-0.306-2.955-0.912-3.722s-1.584-1.153-2.932-1.153
			c-1.726,0-2.942,0.536-3.643,1.603c-0.688,1.084-1.032,2.942-1.032,5.576v10.341h-4.94V221.934z"/>
		<path fill="#666464" d="M643.641,225.459h4.961v1.975c1.726-1.712,3.674-2.57,5.84-2.57c2.488,0,4.428,0.785,5.817,2.35
			c1.201,1.333,1.802,3.505,1.802,6.52v13.107H657.1v-11.944c0-2.107-0.293-3.563-0.879-4.369c-0.571-0.818-1.611-1.228-3.118-1.228
			c-1.641,0-2.804,0.542-3.49,1.624c-0.674,1.069-1.011,2.936-1.011,5.599v10.318h-4.961V225.459z"/>
		<path fill="#666464" d="M667.284,235.996c0-3.088,1.105-5.714,3.317-7.882c2.21-2.166,4.903-3.25,8.079-3.25
			c3.189,0,5.897,1.092,8.123,3.273c2.195,2.18,3.294,4.859,3.294,8.035c0,3.206-1.107,5.89-3.317,8.056
			c-2.224,2.153-4.955,3.229-8.188,3.229c-3.206,0-5.892-1.099-8.058-3.294C668.368,241.997,667.284,239.275,667.284,235.996z
			 M672.333,236.084c0,2.136,0.571,3.827,1.714,5.072c1.17,1.258,2.714,1.887,4.633,1.887c1.931,0,3.476-0.621,4.631-1.866
			c1.157-1.243,1.735-2.904,1.735-4.984c0-2.078-0.578-3.739-1.735-4.982c-1.17-1.26-2.714-1.889-4.631-1.889
			c-1.889,0-3.419,0.63-4.589,1.889C672.919,232.468,672.333,234.094,672.333,236.084z"/>
		<path fill="#666464" d="M700.26,213.685l0.001,33.157h-4.94l-0.001-28.84L700.26,213.685z"/>
		<path fill="#666464" d="M705.507,235.996c0-3.088,1.105-5.714,3.317-7.882c2.21-2.166,4.903-3.25,8.079-3.25
			c3.189,0,5.897,1.092,8.123,3.273c2.195,2.18,3.294,4.859,3.294,8.035c0,3.206-1.107,5.89-3.317,8.056
			c-2.224,2.153-4.955,3.229-8.188,3.229c-3.206,0-5.892-1.099-8.058-3.294C706.591,241.997,705.507,239.275,705.507,235.996z
			 M710.556,236.084c0,2.136,0.571,3.827,1.714,5.072c1.17,1.258,2.714,1.887,4.633,1.887c1.931,0,3.476-0.621,4.631-1.866
			c1.157-1.243,1.735-2.904,1.735-4.984c0-2.078-0.578-3.739-1.735-4.982c-1.17-1.26-2.714-1.889-4.631-1.889
			c-1.889,0-3.419,0.63-4.589,1.889C711.142,232.468,710.556,234.094,710.556,236.084z"/>
		<path fill="#666464" d="M754.223,246.337c0,1.009-0.031,1.898-0.098,2.666c-0.065,0.77-0.157,1.446-0.274,2.032
			c-0.352,1.609-1.04,2.992-2.063,4.149c-1.933,2.224-4.589,3.337-7.97,3.337c-2.854,0-5.202-0.768-7.047-2.306
			c-1.902-1.58-3.001-3.769-3.294-6.564h4.963c0.188,1.055,0.504,1.866,0.944,2.438c1.023,1.331,2.517,1.996,4.478,1.996
			c3.616,0,5.424-2.216,5.424-6.652v-2.986c-1.963,2.007-4.223,3.009-6.784,3.009c-2.913,0-5.3-1.055-7.158-3.162
			c-1.873-2.136-2.81-4.808-2.81-8.014c0-3.118,0.87-5.765,2.613-7.947c1.873-2.312,4.346-3.469,7.42-3.469
			c2.693,0,4.932,1.004,6.719,3.009v-2.415h4.938V246.337z M749.482,236.193c0-2.078-0.557-3.739-1.668-4.982
			c-1.128-1.274-2.57-1.91-4.325-1.91c-1.875,0-3.352,0.695-4.436,2.086c-0.979,1.243-1.471,2.854-1.471,4.829
			c0,1.946,0.492,3.543,1.471,4.785c1.069,1.362,2.547,2.042,4.436,2.042c1.887,0,3.381-0.688,4.478-2.063
			C748.977,239.735,749.482,238.141,749.482,236.193z"/>
		<path fill="#666464" d="M767.199,242.868l-9.617-17.409h5.731l6.541,12.293l6.104-12.293h5.576l-17.037,33.019h-5.641
			L767.199,242.868z"/>
	</g>
</g>
</svg>
